<svg width="57" height="57" viewBox="0 0 57 57" fill="none" xmlns="http://www.w3.org/2000/svg">
<path d="M21.4561 15.1607C19.4647 13.1884 16.2276 13.2159 14.2707 15.2218C12.4615 16.9461 12.4337 19.8056 14.2091 21.564L41.7026 48.7952C43.5958 50.6704 46.6654 50.6704 48.5586 48.7952C50.4518 46.9201 50.4518 43.8798 48.5586 42.0047L21.4561 15.1607Z" fill="black"/>
<path d="M53.5858 53.7168C53.7694 53.787 53.9469 53.602 53.8668 53.424L49.5431 43.8122C49.4766 43.6644 49.2767 43.6369 49.1721 43.7612L44.1069 49.7814C44.0102 49.8963 44.056 50.0713 44.1969 50.1251L53.5858 53.7168Z" fill="black"/>
<path d="M5.53316 12.8413C9.69852 16.9669 9.85951 17.4235 13.801 13.5195C15.8534 11.4867 18.2733 11.6348 12.9654 5.47999C9.90973 2.45347 5.76886 1.64789 3.7165 3.68066C1.66415 5.71343 2.47749 9.8148 5.53316 12.8413Z" fill="black"/>
<path d="M15.9182 25.9778C16.1719 25.9054 16.2674 25.599 16.0989 25.3975L6.54977 13.9786C6.14452 13.494 5.3949 13.4918 4.98674 13.974C4.64967 14.3722 4.67367 14.959 5.04215 15.3289L15.5559 25.884C15.6501 25.9786 15.7892 26.0146 15.9182 25.9778Z" fill="black"/>
</svg>
